<?xml version="1.0" encoding="UTF-8"?>
<svg id="Layer_2" data-name="Layer 2" xmlns="http://www.w3.org/2000/svg" viewBox="0 0 938.6 192.8">
  <defs>
    <style>
      .cls-1 {
        fill: #fff;
      }

      .cls-2 {
        fill: #297071;
      }

      .cls-3 {
        fill: #307960;
      }

      .cls-4 {
        fill: #2a648c;
      }
    </style>
  </defs>
  <g id="Layer_1-2" data-name="Layer 1">
    <g>
      <path class="cls-4" d="m95.72,59.24c3.09-2.19,6.76-3.54,6.35-8.78-.23-2.91,9.93-9.13,13.07-8.88,4.64.37,11.94,6.44,12.6,10.7.87,5.71,6.16,5.76,10.62,8.97,0-8.76.61-16.57-.16-24.23-.92-9.32,2.19-15.21,10.86-19.12,7.87-3.55,15.55-7.8,22.63-12.72,9.52-6.62,18.57-7.29,27.39.32,7.54,6.51,16.99,9.36,25.37,14.24,6.41,3.73,9.28,8.2,8.96,15.66-.5,11.61-.43,23.26-.13,34.88.16,6.14-2.34,10.08-7.53,12.84-7.94,4.21-15.82,8.54-23.72,12.81-1.86,5.71,2.16,4.51,5.22,4.45,0,0-.08-.06-.08-.06.45,2.4,3.05,2.9,4.15,4.72,1.11,1.85,5.29,2.79,2.3,5.91-2.7,2.81-5.45,1.6-7.26-1.28-1.24-1.98-2.5-2.6-4.76-2.07-2.13.5-4.18-1.13-5.94-1.27-2.54-.2-4.74-4.61-7.59-.93-.78.03-1.55.06-2.33.1-.29-1.18-.43-2.21-2.25-1.49-3.53,1.39-6.77,3.96-10.75,3.64-2.27-.18-5.36,2.05-6.47-.02-1.37-2.55,2.87-3.02,3.77-5.16.93-2.21,5.42-4.22.09-6.47-5.87-3.17-11.73-6.33-17.6-9.5-1.6,3.47-3.9,6.6-3.66,10.8.19,3.34-3.34,4.1-5.31,4.65-2.43.68-2.07-2.64-2.66-4.27-1.56-4.32-1.35-8.86-1.39-13.38-.02-2.04.83-4.4-1.39-5.98-2.72-1.51-5.6-2.78-8.13-4.56-9.18-6.42-18.58-6.88-28.34-1.52-4.81-2.38-10.87-2.98-13.06-9.12.41-.17.81-.35,1.22-.52.24.16.47.33.71.49,0-.29-.02-.59-.03-.88,0,0,.21.03.21.03,2.07-.35,6.51,3.25,5.03-3.02Zm63.26,13.53c.17,2.24,1.88,1.66,3.22,1.76,6.53,3.62,13.26,6.94,19.53,10.97,3.76,2.41,6.52,1.9,10.24.01,8.34-4.22,15.69-10.04,24.03-14.16,2.81-1.39,2.75-3.46,2.75-5.78.02-9.07-.23-18.15.08-27.2.15-4.44-1.85-7.35-5.45-8.71-8.17-3.09-15-8.44-22.56-12.55-3.83-2.08-7.19-2.07-11.07.09-7.35,4.09-13.91,9.59-22.15,12.12-2.39.73-4.27,2.65-5.16,5.23-2.18,11.19-.72,22.47-.8,33.7,0,1.03,1.2,1.41,2.21,1.56l-.03-.03c.58,2.94,2.35,3.78,5.1,2.89l.05.11Z"/>
      <path class="cls-1" d="m882.64,92.46c-4.59,11.62-7.51,22.63-10.84,33.5-1.36,4.43-2.68,8.87-3.99,13.32-1.23,4.18-4.32,5.76-8.36,6.18-4.14.43-7.18-1.03-9.31-4.66-3.7-6.3-5.3-13.42-7.77-20.17-5.38-14.67-10.16-29.56-15.53-44.24-1.84-5.04-1.66-8.7,3.83-10.69,5.06-1.84,9.55.4,11.48,6.16,3.4,10.13,6.35,20.4,9.66,30.56,1.89,5.8,4.11,11.49,6.63,18.5,2.36-7.4,4.43-13.58,6.3-19.82,2.85-9.54,5.33-19.21,8.43-28.67,1.24-3.78,3.14-7.61,8.47-7.43,5.09.18,8.57,2.11,10.09,7.18,4.43,14.74,8.97,29.45,13.31,44.22.43,1.45.64,2.84,2.21,2.86,1.69.02,1.08-1.67,1.4-2.69,4.66-14.98,9.3-29.96,14.07-44.9,1.59-4.97,6.27-7.49,10.89-6.25,4.26,1.15,6.13,4.93,4.33,10.64-4.49,14.27-9.32,28.43-14.05,42.63-1.84,5.54-3.78,11.05-5.66,16.58-2.73,8.05-5.55,10.59-11.52,10.31-5.63-.26-9.06-3.97-11.17-11.11-4.04-13.68-8.35-27.28-12.88-42.01Z"/>
      <path class="cls-3" d="m134.97,132.86c-3.79,2.69-7.52,4.93-7.76,10.75-.16,3.76-11.92,7.82-15.63,6.15-5.03-2.27-9.48-4.55-10.17-11.32-.52-5.08-15.13-10.22-19.77-7.61-8.75,4.92-17.54,9.78-26.24,14.79-5.36,3.09-10.23,3.42-15.88-.05-10.39-6.38-21.14-12.2-31.93-17.9C2.2,124.83-.08,120.77,0,114.85c.17-12.02.5-24.05.08-36.05-.29-8.27,2.61-13.64,10.66-15.97.61,5.21,2.97,9.08,8.21,10.75-.99,2.42-4.06,3.26-3.96,6.78.3,10.24.05,20.5-.08,30.75-.03,2.38.56,4.06,2.81,5.3,8.96,4.96,17.83,10.07,26.72,15.16,1.4.8,2.84,1.73,4.42.87,7.47-4.08,15.18-7.78,22.59-12.96-5.89-3.38-11.16-6.41-16.44-9.43-1.36-.78-2.93-2.14-4.34-1.24-4.11,2.63-6.89-.33-10.01-1.96-6.75-3.53-7.91-6.28-6.42-15.01.59-3.46,7.49-9.95,11.34-8.81,6.46,1.91,10.75-1.55,15.7-3.82-.23.72-.28,1.6-.73,2.13-2.03,2.41-1.96,4.96-.57,7.53,1.72,3.16,4.39,1.32,6.72,1.04,1.9-.23,3.78-.63,5.67-.96-3.66,2.31-7.32,4.63-11.24,7.11,15.11,8.63,29.76,16.89,44.28,25.36,5.73,3.34,11.59,2.57,17.58,1.49-.94,7.55.81,9.24,7.94,7.03,3.2-.99,2.95,1.62,4.02,2.93Z"/>
      <path class="cls-1" d="m418.89,110.97c-2.85-.01-5.7-.02-8.55-.04-.29-.51-.59-.53-.89-.01-9.57.04-19.14.08-28.71.13-.28,0-.56.01-.85.02-.59.04-1.2,0-1.76.14-2.55.58-6.26-1.5-7.49,1.19-1.11,2.43,1.14,5.39,2.61,7.86,7.2,12.09,20.61,14.4,33.91,7.87,2.78-1.37,5.26-3,8.75-2.83,3.09.15,4.76,1.41,5.95,3.85,1.32,2.7.34,4.95-1.61,6.94-3.09,3.16-6.81,5.45-10.89,6.92-24.07,8.65-47.95-1.99-54.49-26.83-5.4-20.5,6.2-46.22,27.01-50.09,17.69-3.29,31.05-.51,41.92,17.17,3.59,5.83,4.32,12.49,4.55,19.09.22,6.3-1.78,7.97-8.5,8.59-.34-.5-.65-.42-.95.04Zm-26.87-12.51v-.05c5.7,0,11.4-.12,17.09.05,3.26.1,3.97-.63,2.98-4.01-2.88-9.84-12.29-15.17-21.29-15.04-8.85.13-18.36,7.79-20.39,16.05-.59,2.4.44,3.08,2.75,3.04,6.29-.11,12.57-.04,18.86-.04Z"/>
      <path class="cls-1" d="m743.8,105.16c-.65-19.04,11.53-34.27,30.21-39.7,18.55-5.39,41.24,8.84,45.99,27.72,2.37,9.41,2.35,18.76-.66,27.55-4.5,13.13-14.37,20.47-28.14,23.92-23.32,5.85-41.65-10.65-46.44-29.68-.79-3.15-.67-6.54-.97-9.81Zm61.74.86c-.11-17.07-8.37-25.61-24.86-25.46-12.77.12-20.97,10.59-21.09,24.6-.13,15.58,10.7,25.81,23.02,26.05,11.58.22,24.88-9.42,22.93-25.19Z"/>
      <path class="cls-1" d="m526.66,120.7c2.86,8.28,7.58,11.27,17.04,10.76,8.89-.47,13.93-5.37,16.07-15.61,1.53-6.18,1.21-12.38.26-18.59.02-6.81.04-13.62.07-20.43.11-.07.33-.18.32-.21-.08-.23-.21-.44-.32-.65.06-1.37-.05-2.77.22-4.09.96-4.61,3.58-7.3,8.6-6.79,4.67.48,7.14,3.26,7.16,7.83.11,21.66.07,43.31.11,64.97,0,4.52-2.9,6.92-6.67,7.45-4.84.69-7.97-2.14-9.2-7.53-9.7,8.33-20.68,9.96-32.14,6.5-10.01-3.03-18.19-12.27-18.19-25.06,0-14.77,0-29.53-.05-44.3-.01-4.2.68-8.09,5.31-9.45,4.51-1.33,8.12.19,10.41,4.44-.05,11.9-.18,23.8-.1,35.7.03,5.03-.9,10.16,1.08,15.06Z"/>
      <path class="cls-1" d="m325.01,91.25c-2.7-8.23-7.87-12.04-15.9-11.74-7.52.28-15.21,6.45-16.73,13.94-1.91,9.42-1.02,19.02-1.15,28.54-.06,4.72.11,9.45.09,14.17-.02,5.02-1.93,8.33-7.6,8.31-5.57-.02-8.03-2.27-8.06-8.19-.08-20.67.09-41.35-.15-62.02-.06-4.9,1.57-8.07,6.26-8.96,4.79-.91,7.92,1.41,9.13,6.2.13.52.37,1.02.67,1.82,10.15-9.23,21.57-10.37,33.92-5.87,9.04,3.29,13.54,10.15,15.3,19.23,1.96,10.11.87,20.33,1.07,30.5.12,5.9.06,11.81.06,17.72,0,4.11-.58,8.25-5.24,9.39-4.96,1.21-8.92-.56-10.64-5.83-.04-6.82.08-13.64-.15-20.44-.3-8.92,1.2-17.9-.88-26.76Z"/>
      <path class="cls-1" d="m466.23,117.15c-6.22,8.31-12.16,16.23-18.09,24.17-3.09,4.14-8.62,5.43-12.07,2.8-3.99-3.03-4.14-6.91-.4-11.79,5.83-7.61,11.5-15.36,17.61-22.74,2.85-3.45,2.56-5.83-.16-9.13-6.01-7.29-11.7-14.84-17.35-22.42-3.98-5.33-3.71-8.42.53-11.55,3.64-2.69,8.81-1.95,12.05,2.14,5.37,6.79,10.58,13.72,15.69,20.71,2.08,2.84,3.65,2.84,5.7.05,5-6.83,10.07-13.6,15.17-20.34,3.23-4.27,8.57-5.37,12.26-2.65,3.21,2.37,3.26,7.86,0,12.12-5.95,7.77-11.85,15.57-17.99,23.19-1.96,2.44-1.97,4.15-.03,6.57,6.05,7.51,11.9,15.18,17.81,22.81,4.4,5.68,4.79,9.42,1.33,12.46-3.93,3.46-8.78,2.9-13.1-2.29-6.38-7.65-12.33-15.65-18.94-24.11Z"/>
      <path class="cls-1" d="m617.56,65.08c5.05-.94,10.81,1.12,16.68,2.39,5.4,1.17,7.41,4.66,5.92,10.13-.94,3.46-6.06,5.84-10,4.54-5.53-1.83-11.07-3.54-17.01-2.83-4.55.54-8.67,1.97-9.69,7.11-1.03,5.18,2.79,7.62,6.57,9.28,4.65,2.04,9.58,3.51,14.5,4.82,15.56,4.16,18.88,10.67,18.92,21.6.05,11.41-4.17,18.98-19.1,23.06-11.53,3.15-22.34,1.18-32.96-3.32-4.31-1.83-6.04-5.04-3.67-9.51,2.3-4.35,5.58-5.5,10.34-3.45,7.4,3.19,15.06,5.3,23.15,2.41,3.76-1.34,6.68-3.52,7.08-7.82.4-4.25-2.56-6.43-5.71-8.21-6.16-3.48-13.53-3.33-19.84-6.63-4.06-2.13-7.95-4.2-10.99-7.74-5.5-6.4-6.63-13.76-3.42-21.17,3.96-9.14,11.71-13.74,21.59-14.64,2.15-.19,4.33-.03,7.62-.03Z"/>
      <path class="cls-1" d="m663.66,86.52c1.92-5.49-2.13-4.8-5.14-4.73-4.01.1-6.16-2.55-7.62-5.41-1.44-2.82-.13-5.77,2.13-7.94,1.25-1.2,2.85-2.39,4.68-1.99,6.08,1.31,5.82-2.33,5.9-6.63.26-14.05,10.47-27.12,25.31-25.49,1.55.17,3.16.17,4.71-.02,4.05-.48,6.72,0,6.95,5.23.22,4.99-.94,8.4-6.14,9.11-13.97,1.91-14.37,2.28-14.32,16.9-.1.43.06.7.5.8,4.23.07,8.46.13,12.68.2.27.47.56.5.86.02,5.47.11,7.58,3.04,7.38,8.33-.2,5.35-4.11,5.95-7.97,6.77-.19.04-.39-.01-.59.01-4.2.55-9.99-1.94-12.21,1.25-2.03,2.91-.47,8.33-.46,12.65.01,13.55-.2,27.11.17,40.65.15,5.53-3.06,8.07-7.21,9.14-4.27,1.11-7.43-1.48-8.89-5.74-.25-17.71-.49-35.42-.74-53.12Z"/>
      <path class="cls-2" d="m134.97,132.86c-1.07-1.31-.82-3.93-4.02-2.93-7.14,2.21-8.89.52-7.94-7.03,4.08-2.28,8.1-4.66,12.25-6.82,2.1-1.09,3.26-2.35,3.21-4.92-.21-10.95-.24-21.9-.34-32.85,2.22,1.58,1.38,3.93,1.39,5.98.04,4.52-.17,9.06,1.39,13.38.59,1.63.23,4.94,2.66,4.27,1.96-.55,5.5-1.31,5.31-4.65-.24-4.2,2.06-7.34,3.66-10.8,0,6.78,0,13.55,0,20.97,5.87-3.22,11.82-6.48,17.73-9.81.2-.12-.08-1.09-.13-1.66,5.34,2.26.85,4.27-.09,6.47-.9,2.14-5.14,2.6-3.77,5.16,1.11,2.07,4.2-.17,6.47.02,3.98.32,7.22-2.25,10.75-3.64,1.82-.72,1.96.31,2.25,1.49-6.55,4.5-14.28,7.04-21.01,12.48,7.25,2.71,12.17,8.97,20.2,8.69,5.5-.19,12.07,4.05,12.66,7.6,1.77,10.55-.81,16.47-8.35,19.14-5.54,1.96-18.05-3.9-17.6-8.85.54-5.94-2.89-8.09-6.98-10.06-4.02-1.93-6.99-6.26-12.23-5.47-.48.84-.92,1.7-1.43,2.51q-5.85,9.17-12.49,2.2c-.43-3.34-2.25-1.09-3.56-.89Z"/>
      <path class="cls-3" d="m138.52,133.75q6.63,6.97,12.49-2.2c.52-.81.96-1.67,1.43-2.51.08,8.08.34,16.16.18,24.23-.08,3.97.98,6.5,4.74,8.47,7.32,3.82,14.43,8.09,21.44,12.47,4.33,2.7,8.41,2.8,12.75.36,7.55-4.26,15.07-8.56,22.69-12.68,3.29-1.78,4.76-4.11,4.65-7.99-.25-8.66-.07-17.33-.06-26,1.81,1.79,1.11,4.08,1.14,6.17.08,7.48.01,14.96.06,22.44,0,1.5-.44,3.32,1.45,4.12,1.68.71,2.99-.18,4.26-1.24,3.78-3.12,6.1-6.91,6.11-12,.02-10.23.17-20.47.26-30.7,1.52,2.11,1,4.54,1,6.86.01,11.61-.21,23.22.02,34.82.14,7.07-2.69,11.83-9.02,14.94-10.24,5.03-20.24,10.52-29.85,16.7-5.45,3.5-10.61,3.86-16.43.3-10.16-6.21-20.56-12.06-31.09-17.63-5.93-3.14-8.66-7.42-8.4-14.13.32-8.25.15-16.52.19-24.78Z"/>
      <path class="cls-1" d="m711.68,41.53c.56-6.34,4.34-8.1,10.08-7.14,5.51.92,5.83,5.16,5.85,9.39.09,25.39.18,50.78.05,76.17-.03,5.59,2.52,8.84,7.54,10.15,4.75,1.24,5.55,4.6,5.16,8.54-.41,4.16-2.99,5.44-7.23,5.97-11.05,1.39-20.16-8.77-21.45-20.35,0-27.58,0-55.15,0-82.73Z"/>
      <path class="cls-2" d="m18.96,73.58c-5.24-1.67-7.6-5.54-8.21-10.75,10.7-6.92,21.97-12.84,33.1-19.01,3.6-2,6.82-.97,10.02.91,7.99,4.67,15.94,9.42,24.01,13.94,3.36,1.89,6.42,4.7,10.7,4.46,2.19,6.14,8.25,6.73,13.06,9.12-9.76,5.57-19.51,11.14-29.27,16.71-1.89.33-3.77.73-5.67.96-2.32.28-5,2.12-6.72-1.04-1.39-2.56-1.47-5.12.57-7.53.45-.53.5-1.41.73-2.13,0,0-.01.03-.01.03.44-.33.87-.66,1.31-.99,1.69-1,3.31-2.15,5.08-2.99,4.26-2.01,3.75-3.65-.05-5.7-5.19-2.79-10.21-5.88-15.32-8.81-3.49-1.99-6.54-2.01-10.24.43-7.3,4.79-14.83,9.33-23.09,12.39Z"/>
      <path class="cls-2" d="m232.11,116.68c-.09,10.23-.24,20.47-.26,30.7-.01,5.09-2.32,8.87-6.11,12-1.27,1.05-2.59,1.94-4.26,1.24-1.89-.8-1.44-2.62-1.45-4.12-.05-7.48.02-14.96-.06-22.44-.02-2.09.67-4.38-1.14-6.17.25-3.56-1.59-5.63-4.59-7.32-8.79-4.94-17.46-10.1-26.18-15.17,2.85-3.68,5.05.73,7.59.93,1.76.14,3.81,1.77,5.94,1.27,2.26-.53,3.52.09,4.76,2.07,1.8,2.89,4.56,4.1,7.26,1.28,2.99-3.12-1.19-4.06-2.3-5.91-1.09-1.82-3.7-2.32-4.15-4.72,7.08,3.84,14.18,7.64,21.21,11.57,1.83,1.02,3.64,2.31,3.75,4.8Z"/>
      <path class="cls-1" d="m560.04,97.26c.95,6.21,1.27,12.42-.26,18.59.09-6.2.18-12.4.26-18.59Z"/>
      <path class="cls-2" d="m95.72,59.24c1.48,6.27-2.96,2.67-5.03,3.02,1.34-1.58,3.19-2.29,5.03-3.02Z"/>
      <path class="cls-2" d="m207.24,100.37c-3.06.07-7.08,1.26-5.22-4.45.74,2.65,4.02,2.33,5.22,4.45Z"/>
      <path class="cls-1" d="m560.11,75.96c.11.22.24.43.32.65.01.03-.21.14-.32.21-.31-.29-.31-.58,0-.87Z"/>
      <path class="cls-1" d="m379.89,111.06c.28,0,.57-.01.85-.02,0,0-.42.2-.42.2l-.43-.18Z"/>
      <path class="cls-1" d="m409.45,110.92c.31-.51.6-.5.89.01,0,0-.45.19-.45.19l-.44-.2Z"/>
      <path class="cls-1" d="m418.89,110.97c.3-.46.61-.54.95-.04,0,0-.47.23-.47.23l-.48-.19Z"/>
      <path class="cls-1" d="m680.64,66.36c-.44-.1-.61-.37-.5-.8.35.16.52.43.5.8Z"/>
      <path class="cls-2" d="m90.48,62.22c0,.29.02.59.03.88-.24-.16-.47-.33-.71-.49.12-.31.35-.44.68-.39Z"/>
      <path class="cls-1" d="m694.18,66.58c-.3.48-.58.45-.86-.02.29-.26.58-.26.86.02Z"/>
      <path class="cls-2" d="m152.45,34.54c.12,9.45.24,18.9.35,28.35.03,2.35-.2,4.75,1.05,6.91-1.01-.15-2.22-.52-2.21-1.56.09-11.24-1.38-22.52.8-33.7Z"/>
      <path class="cls-2" d="m153.82,69.77c1.98.47,3.68,1.44,5.1,2.89-2.75.89-4.52.05-5.1-2.89Z"/>
      <path class="cls-2" d="m158.98,72.77c1.07.59,2.14,1.17,3.22,1.76-1.34-.1-3.05.48-3.22-1.76Z"/>
      <path class="cls-3" d="m61.28,79.24c.18-.68.54-1.11,1.31-.99-.44.33-.87.66-1.31.99Z"/>
      <path class="cls-4" d="m197.54,52.6c.03,9.72-.84,11.01-10.87,13.51-4.29,1.07-8.9-.26-13.3,1.51-2.02.81-2.69-1.91-3.26-3.47-.88-2.39-3.57-4.73-.84-7.48,1.29-1.3,2.51-2.51,2.21-4.54-1.36-9.26,6.71-10.25,12.07-12.68,5.09-2.31,9.04,2.54,12.88,5.23,2.77,1.94.43,5.58,1.11,7.92Z"/>
      <path class="cls-2" d="m127.73,95.3c.02,8.16-5.81,14.68-12.96,14.81-6.01.11-13.07-7.21-13.08-13.54-.01-7.72,6.47-15.68,13-15.39,3.79.17,6.63,3.19,10.02,4.67,4.9,2.14,2.42,6.39,3.03,9.46Z"/>
    </g>
  </g>
</svg>