<svg width="1000" height="1000" viewBox="0 0 1000 1000" fill="none" xmlns="http://www.w3.org/2000/svg">
<rect width="1000" height="1000" fill="#1E1E1E"/>
<rect width="1000" height="1000" fill="white"/>
<path d="M68.1395 443.537L167.123 197.012L354.818 120.44V68.1465L509.831 175.534L408.045 324.01L382.833 277.319L68.1395 443.537Z" fill="#1EF0F1"/>
<path d="M926.309 581.741L827.325 828.266L639.63 904.838L639.63 957.131L484.618 849.744L586.403 701.268L611.616 747.958L926.309 581.741Z" fill="#037899"/>
<path d="M238.092 637.769L531.308 958.065L238.092 832.001V637.769Z" fill="url(#paint0_linear_0_1)"/>
<path d="M238.092 637.769L531.308 958.065L238.092 832.001V637.769Z" fill="black" fill-opacity="0.2"/>
<path d="M179.263 419.258L56 566.8H117.631L154.984 801.185L302.525 860.015L271.71 566.8L321.201 549.057L179.263 419.258Z" fill="url(#paint1_linear_0_1)"/>
<path d="M179.263 419.258L56 566.8H117.631L154.984 801.185L302.525 860.015L271.71 566.8L321.201 549.057L179.263 419.258Z" fill="black" fill-opacity="0.2"/>
<path d="M761.025 362.296L467.809 42L761.025 168.064L761.025 362.296Z" fill="url(#paint2_linear_0_1)"/>
<path d="M761.025 362.296L467.809 42L761.025 168.064L761.025 362.296Z" fill="black" fill-opacity="0.2"/>
<path d="M819.855 580.807L943.117 433.265L881.486 433.265L844.134 198.88L696.592 140.05L727.408 433.265L677.916 451.008L819.855 580.807Z" fill="url(#paint3_linear_0_1)"/>
<path d="M819.855 580.807L943.117 433.265L881.486 433.265L844.134 198.88L696.592 140.05L727.408 433.265L677.916 451.008L819.855 580.807Z" fill="black" fill-opacity="0.2"/>
<path d="M499.559 537.385C520.446 537.385 537.378 520.453 537.378 499.566C537.378 478.679 520.446 461.746 499.559 461.746C478.672 461.746 461.739 478.679 461.739 499.566C461.739 520.453 478.672 537.385 499.559 537.385Z" stroke="url(#paint4_linear_0_1)" stroke-width="13" stroke-linejoin="round"/>
<path d="M499.559 537.385C520.446 537.385 537.378 520.453 537.378 499.566C537.378 478.679 520.446 461.746 499.559 461.746C478.672 461.746 461.739 478.679 461.739 499.566C461.739 520.453 478.672 537.385 499.559 537.385Z" stroke="black" stroke-opacity="0.2" stroke-width="13" stroke-linejoin="round"/>
<path d="M592.846 537.385C591.168 541.187 590.667 545.405 591.409 549.494C592.15 553.584 594.1 557.357 597.006 560.329L597.763 561.085C600.107 563.426 601.966 566.207 603.235 569.268C604.504 572.329 605.157 575.61 605.157 578.923C605.157 582.236 604.504 585.517 603.235 588.578C601.966 591.639 600.107 594.419 597.763 596.761C595.421 599.105 592.64 600.965 589.579 602.234C586.519 603.503 583.238 604.156 579.924 604.156C576.611 604.156 573.33 603.503 570.269 602.234C567.209 600.965 564.428 599.105 562.086 596.761L561.33 596.005C558.359 593.098 554.585 591.149 550.496 590.407C546.406 589.666 542.189 590.166 538.386 591.845C534.658 593.443 531.478 596.096 529.238 599.478C526.998 602.86 525.796 606.824 525.78 610.88V613.023C525.78 619.71 523.124 626.123 518.395 630.851C513.667 635.58 507.254 638.236 500.567 638.236C493.88 638.236 487.467 635.58 482.739 630.851C478.011 626.123 475.354 619.71 475.354 613.023V611.889C475.257 607.716 473.906 603.669 471.478 600.274C469.05 596.88 465.657 594.294 461.739 592.853C457.937 591.175 453.719 590.674 449.63 591.416C445.54 592.157 441.767 594.107 438.796 597.013L438.039 597.77C435.698 600.114 432.917 601.973 429.856 603.242C426.796 604.511 423.515 605.164 420.201 605.164C416.888 605.164 413.607 604.511 410.546 603.242C407.486 601.973 404.705 600.114 402.363 597.77C400.019 595.428 398.159 592.647 396.891 589.586C395.622 586.526 394.969 583.245 394.969 579.931C394.969 576.618 395.622 573.337 396.891 570.276C398.159 567.216 400.019 564.435 402.363 562.093L403.12 561.337C406.026 558.366 407.975 554.592 408.717 550.503C409.458 546.413 408.958 542.196 407.28 538.393C405.682 534.665 403.028 531.485 399.646 529.245C396.264 527.005 392.301 525.803 388.244 525.787H386.101C379.414 525.787 373.001 523.131 368.273 518.402C363.545 513.674 360.888 507.261 360.888 500.574C360.888 493.887 363.545 487.474 368.273 482.746C373.001 478.018 379.414 475.361 386.101 475.361H387.236C391.408 475.264 395.455 473.913 398.85 471.485C402.245 469.057 404.831 465.664 406.271 461.746C407.949 457.944 408.45 453.726 407.708 449.637C406.967 445.547 405.017 441.774 402.111 438.803L401.355 438.046C399.011 435.705 397.151 432.924 395.882 429.863C394.613 426.803 393.96 423.522 393.96 420.208C393.96 416.895 394.613 413.614 395.882 410.553C397.151 407.493 399.011 404.712 401.355 402.37C403.696 400.026 406.477 398.166 409.538 396.898C412.599 395.629 415.879 394.976 419.193 394.976C422.506 394.976 425.787 395.629 428.848 396.898C431.909 398.166 434.689 400.026 437.031 402.37L437.787 403.127C440.758 406.033 444.532 407.982 448.621 408.724C452.711 409.465 456.929 408.965 460.731 407.287H461.739C465.468 405.689 468.648 403.035 470.888 399.653C473.128 396.271 474.33 392.308 474.346 388.251V386.108C474.346 379.421 477.002 373.008 481.73 368.28C486.459 363.552 492.872 360.895 499.559 360.895C506.245 360.895 512.658 363.552 517.387 368.28C522.115 373.008 524.771 379.421 524.771 386.108V387.243C524.788 391.299 525.99 395.262 528.229 398.645C530.469 402.027 533.649 404.68 537.378 406.278C541.18 407.956 545.398 408.457 549.487 407.715C553.577 406.974 557.35 405.024 560.321 402.118L561.078 401.362C563.419 399.018 566.2 397.158 569.261 395.889C572.322 394.62 575.603 393.967 578.916 393.967C582.229 393.967 585.51 394.62 588.571 395.889C591.632 397.158 594.412 399.018 596.754 401.362C599.098 403.703 600.958 406.484 602.227 409.545C603.496 412.606 604.149 415.886 604.149 419.2C604.149 422.513 603.496 425.794 602.227 428.855C600.958 431.916 599.098 434.696 596.754 437.038L595.998 437.794C593.091 440.765 591.142 444.539 590.4 448.628C589.659 452.718 590.159 456.936 591.838 460.738V461.746C593.436 465.475 596.089 468.655 599.471 470.895C602.853 473.135 606.817 474.337 610.873 474.353H613.016C619.703 474.353 626.116 477.009 630.844 481.738C635.573 486.466 638.229 492.879 638.229 499.566C638.229 506.253 635.573 512.665 630.844 517.394C626.116 522.122 619.703 524.778 613.016 524.778H611.882C607.825 524.795 603.862 525.997 600.48 528.236C597.097 530.476 594.444 533.656 592.846 537.385Z" stroke="url(#paint5_linear_0_1)" stroke-width="13" stroke-linejoin="round"/>
<path d="M592.846 537.385C591.168 541.187 590.667 545.405 591.409 549.494C592.15 553.584 594.1 557.357 597.006 560.329L597.763 561.085C600.107 563.426 601.966 566.207 603.235 569.268C604.504 572.329 605.157 575.61 605.157 578.923C605.157 582.236 604.504 585.517 603.235 588.578C601.966 591.639 600.107 594.419 597.763 596.761C595.421 599.105 592.64 600.965 589.579 602.234C586.519 603.503 583.238 604.156 579.924 604.156C576.611 604.156 573.33 603.503 570.269 602.234C567.209 600.965 564.428 599.105 562.086 596.761L561.33 596.005C558.359 593.098 554.585 591.149 550.496 590.407C546.406 589.666 542.189 590.166 538.386 591.845C534.658 593.443 531.478 596.096 529.238 599.478C526.998 602.86 525.796 606.824 525.78 610.88V613.023C525.78 619.71 523.124 626.123 518.395 630.851C513.667 635.58 507.254 638.236 500.567 638.236C493.88 638.236 487.467 635.58 482.739 630.851C478.011 626.123 475.354 619.71 475.354 613.023V611.889C475.257 607.716 473.906 603.669 471.478 600.274C469.05 596.88 465.657 594.294 461.739 592.853C457.937 591.175 453.719 590.674 449.63 591.416C445.54 592.157 441.767 594.107 438.796 597.013L438.039 597.77C435.698 600.114 432.917 601.973 429.856 603.242C426.796 604.511 423.515 605.164 420.201 605.164C416.888 605.164 413.607 604.511 410.546 603.242C407.486 601.973 404.705 600.114 402.363 597.77C400.019 595.428 398.159 592.647 396.891 589.586C395.622 586.526 394.969 583.245 394.969 579.931C394.969 576.618 395.622 573.337 396.891 570.276C398.159 567.216 400.019 564.435 402.363 562.093L403.12 561.337C406.026 558.366 407.975 554.592 408.717 550.503C409.458 546.413 408.958 542.196 407.28 538.393C405.682 534.665 403.028 531.485 399.646 529.245C396.264 527.005 392.301 525.803 388.244 525.787H386.101C379.414 525.787 373.001 523.131 368.273 518.402C363.545 513.674 360.888 507.261 360.888 500.574C360.888 493.887 363.545 487.474 368.273 482.746C373.001 478.018 379.414 475.361 386.101 475.361H387.236C391.408 475.264 395.455 473.913 398.85 471.485C402.245 469.057 404.831 465.664 406.271 461.746C407.949 457.944 408.45 453.726 407.708 449.637C406.967 445.547 405.017 441.774 402.111 438.803L401.355 438.046C399.011 435.705 397.151 432.924 395.882 429.863C394.613 426.803 393.96 423.522 393.96 420.208C393.96 416.895 394.613 413.614 395.882 410.553C397.151 407.493 399.011 404.712 401.355 402.37C403.696 400.026 406.477 398.166 409.538 396.898C412.599 395.629 415.879 394.976 419.193 394.976C422.506 394.976 425.787 395.629 428.848 396.898C431.909 398.166 434.689 400.026 437.031 402.37L437.787 403.127C440.758 406.033 444.532 407.982 448.621 408.724C452.711 409.465 456.929 408.965 460.731 407.287H461.739C465.468 405.689 468.648 403.035 470.888 399.653C473.128 396.271 474.33 392.308 474.346 388.251V386.108C474.346 379.421 477.002 373.008 481.73 368.28C486.459 363.552 492.872 360.895 499.559 360.895C506.245 360.895 512.658 363.552 517.387 368.28C522.115 373.008 524.771 379.421 524.771 386.108V387.243C524.788 391.299 525.99 395.262 528.229 398.645C530.469 402.027 533.649 404.68 537.378 406.278C541.18 407.956 545.398 408.457 549.487 407.715C553.577 406.974 557.35 405.024 560.321 402.118L561.078 401.362C563.419 399.018 566.2 397.158 569.261 395.889C572.322 394.62 575.603 393.967 578.916 393.967C582.229 393.967 585.51 394.62 588.571 395.889C591.632 397.158 594.412 399.018 596.754 401.362C599.098 403.703 600.958 406.484 602.227 409.545C603.496 412.606 604.149 415.886 604.149 419.2C604.149 422.513 603.496 425.794 602.227 428.855C600.958 431.916 599.098 434.696 596.754 437.038L595.998 437.794C593.091 440.765 591.142 444.539 590.4 448.628C589.659 452.718 590.159 456.936 591.838 460.738V461.746C593.436 465.475 596.089 468.655 599.471 470.895C602.853 473.135 606.817 474.337 610.873 474.353H613.016C619.703 474.353 626.116 477.009 630.844 481.738C635.573 486.466 638.229 492.879 638.229 499.566C638.229 506.253 635.573 512.665 630.844 517.394C626.116 522.122 619.703 524.778 613.016 524.778H611.882C607.825 524.795 603.862 525.997 600.48 528.236C597.097 530.476 594.444 533.656 592.846 537.385Z" stroke="black" stroke-opacity="0.2" stroke-width="13" stroke-linejoin="round"/>
<defs>
<linearGradient id="paint0_linear_0_1" x1="384.7" y1="958.065" x2="384.7" y2="637.769" gradientUnits="userSpaceOnUse">
<stop stop-color="#1EF0F1"/>
<stop offset="1" stop-color="#037899"/>
</linearGradient>
<linearGradient id="paint1_linear_0_1" x1="188.601" y1="860.015" x2="188.601" y2="419.258" gradientUnits="userSpaceOnUse">
<stop stop-color="#1EF0F1"/>
<stop offset="1" stop-color="#037899"/>
</linearGradient>
<linearGradient id="paint2_linear_0_1" x1="614.417" y1="42" x2="614.417" y2="362.296" gradientUnits="userSpaceOnUse">
<stop stop-color="#1EF0F1"/>
<stop offset="1" stop-color="#037899"/>
</linearGradient>
<linearGradient id="paint3_linear_0_1" x1="810.517" y1="140.05" x2="810.517" y2="580.807" gradientUnits="userSpaceOnUse">
<stop stop-color="#1EF0F1"/>
<stop offset="1" stop-color="#037899"/>
</linearGradient>
<linearGradient id="paint4_linear_0_1" x1="499.559" y1="638.236" x2="499.559" y2="360.895" gradientUnits="userSpaceOnUse">
<stop stop-color="#1EF0F1"/>
<stop offset="1" stop-color="#037899"/>
</linearGradient>
<linearGradient id="paint5_linear_0_1" x1="499.559" y1="638.236" x2="499.559" y2="360.895" gradientUnits="userSpaceOnUse">
<stop stop-color="#1EF0F1"/>
<stop offset="1" stop-color="#037899"/>
</linearGradient>
</defs>
</svg>
